<svg xmlns="http://www.w3.org/2000/svg" version="1.1" xmlns:xlink="http://www.w3.org/1999/xlink" xmlns:svgjs="http://svgjs.dev/svgjs" width="1440" height="560" preserveAspectRatio="none" viewBox="0 0 1440 560"><g clip-path="url(&quot;#SvgjsClipPath1094&quot;)" fill="none"><rect width="1440" height="560" x="0" y="0" fill="#0e2a47"></rect><circle r="93.335" cx="-83.35" cy="20.54" stroke="#365aa3" stroke-opacity="0.25" stroke-width="2"></circle><circle r="93.335" cx="383" cy="324.44" stroke="#365aa3" stroke-opacity="0.25" stroke-width="2"></circle><circle r="93.335" cx="717.93" cy="686.24" stroke="#365aa3" stroke-opacity="0.25" stroke-width="2"></circle><circle r="70.235" cx="1371.87" cy="389.51" stroke="#365aa3" stroke-opacity="0.25" stroke-width="2"></circle><circle r="148.98" cx="512.06" cy="278.81" stroke="#365aa3" stroke-opacity="0.25" stroke-width="2"></circle><circle r="173.565" cx="1091.21" cy="411.74" stroke="#365aa3" stroke-opacity="0.25" stroke-width="2"></circle><circle r="117.72" cx="642.9" cy="50.46" stroke="#365aa3" stroke-opacity="0.25" stroke-width="2"></circle><circle r="127.585" cx="60.2" cy="54.49" stroke="#365aa3" stroke-opacity="0.25" stroke-width="2"></circle><circle r="111.44" cx="967.95" cy="228.43" stroke="#365aa3" stroke-opacity="0.25" stroke-width="2"></circle><circle r="94.005" cx="925.89" cy="539.42" stroke="#365aa3" stroke-opacity="0.25" stroke-width="2"></circle><circle r="82.645" cx="1199.67" cy="204.51" stroke="#365aa3" stroke-opacity="0.25" stroke-width="2"></circle><circle r="179.095" cx="1331.68" cy="72.3" stroke="#365aa3" stroke-opacity="0.25" stroke-width="2"></circle><circle r="63.455" cx="2.99" cy="9.88" stroke="#365aa3" stroke-opacity="0.25" stroke-width="2"></circle><circle r="126.335" cx="1209.33" cy="215.22" stroke="#365aa3" stroke-opacity="0.25" stroke-width="2"></circle><circle r="148.805" cx="930.95" cy="52.04" stroke="#365aa3" stroke-opacity="0.25" stroke-width="2"></circle><circle r="91.795" cx="4.71" cy="411.51" stroke="#365aa3" stroke-opacity="0.25" stroke-width="2"></circle><circle r="64.27" cx="1092.74" cy="461.55" stroke="#365aa3" stroke-opacity="0.25" stroke-width="2"></circle><circle r="59.565" cx="1010.25" cy="443.94" stroke="#365aa3" stroke-opacity="0.25" stroke-width="2"></circle><circle r="75.07" cx="609.33" cy="77.38" stroke="#365aa3" stroke-opacity="0.25" stroke-width="2"></circle><circle r="154.14" cx="1384.46" cy="33.36" stroke="#365aa3" stroke-opacity="0.25" stroke-width="2"></circle><circle r="88.675" cx="343.76" cy="13.52" stroke="#365aa3" stroke-opacity="0.25" stroke-width="2"></circle><circle r="61.97" cx="586.31" cy="393.44" stroke="#365aa3" stroke-opacity="0.25" stroke-width="2"></circle><circle r="173.505" cx="864.15" cy="49.49" stroke="#365aa3" stroke-opacity="0.25" stroke-width="2"></circle><circle r="157.28" cx="1342.74" cy="540.05" stroke="#365aa3" stroke-opacity="0.25" stroke-width="2"></circle><circle r="139.875" cx="596.5" cy="372.7" stroke="#365aa3" stroke-opacity="0.25" stroke-width="2"></circle><circle r="181.695" cx="592.95" cy="223.72" stroke="#365aa3" stroke-opacity="0.25" stroke-width="2"></circle><circle r="73.875" cx="1033.95" cy="216.58" stroke="#365aa3" stroke-opacity="0.25" stroke-width="2"></circle><circle r="172.92" cx="386.92" cy="333.23" stroke="#365aa3" stroke-opacity="0.25" stroke-width="2"></circle><circle r="162.785" cx="960.03" cy="285.62" stroke="#365aa3" stroke-opacity="0.25" stroke-width="2"></circle><circle r="156.335" cx="716.37" cy="277.84" stroke="#365aa3" stroke-opacity="0.25" stroke-width="2"></circle><circle r="172.875" cx="1425.03" cy="381.71" stroke="#365aa3" stroke-opacity="0.25" stroke-width="2"></circle><circle r="55.765" cx="1411.92" cy="416.78" stroke="#365aa3" stroke-opacity="0.25" stroke-width="2"></circle><circle r="71.59" cx="1122.4" cy="290.66" stroke="#365aa3" stroke-opacity="0.25" stroke-width="2"></circle><circle r="77.14" cx="1115.34" cy="285.64" stroke="#365aa3" stroke-opacity="0.25" stroke-width="2"></circle><circle r="125.435" cx="1126.92" cy="19.58" stroke="#365aa3" stroke-opacity="0.25" stroke-width="2"></circle><circle r="71.53" cx="1206.2" cy="53.22" stroke="#365aa3" stroke-opacity="0.25" stroke-width="2"></circle><circle r="117.515" cx="572.27" cy="479.77" stroke="#365aa3" stroke-opacity="0.25" stroke-width="2"></circle><circle r="175.53" cx="1143.6" cy="157.5" stroke="#365aa3" stroke-opacity="0.25" stroke-width="2"></circle><circle r="110.805" cx="1248.18" cy="137.52" stroke="#365aa3" stroke-opacity="0.25" stroke-width="2"></circle><circle r="107.78" cx="310.78" cy="6.6" stroke="#365aa3" stroke-opacity="0.25" stroke-width="2"></circle><circle r="109.975" cx="353.85" cy="41.76" stroke="#365aa3" stroke-opacity="0.25" stroke-width="2"></circle><circle r="79.155" cx="1244.85" cy="507.35" stroke="#365aa3" stroke-opacity="0.25" stroke-width="2"></circle><circle r="168.545" cx="1398.97" cy="202.44" stroke="#365aa3" stroke-opacity="0.25" stroke-width="2"></circle><circle r="74.815" cx="357.62" cy="39.4" stroke="#365aa3" stroke-opacity="0.25" stroke-width="2"></circle><circle r="137.53" cx="194.66" cy="257.81" stroke="#365aa3" stroke-opacity="0.25" stroke-width="2"></circle><circle r="168.445" cx="451.54" cy="394.53" stroke="#365aa3" stroke-opacity="0.25" stroke-width="2"></circle><circle r="152.065" cx="517.73" cy="205.84" stroke="#365aa3" stroke-opacity="0.25" stroke-width="2"></circle><circle r="80.1" cx="838.32" cy="355.16" stroke="#365aa3" stroke-opacity="0.25" stroke-width="2"></circle><circle r="161.405" cx="1372.97" cy="162.14" stroke="#365aa3" stroke-opacity="0.25" stroke-width="2"></circle><circle r="157.765" cx="832.94" cy="10.7" stroke="#365aa3" stroke-opacity="0.25" stroke-width="2"></circle></g><defs><clipPath id="SvgjsClipPath1094"><rect width="1440" height="560" x="0" y="0"></rect></clipPath></defs></svg>